<!-- <svg xmlns="http://www.w3.org/2000/svg" xmlns:xlink="http://www.w3.org/1999/xlink"  height="432.36" viewBox="0 0 1036 432.36" class="svg" preserveAspectRatio="none">
  <defs>
    <filter id="Path_1" x="0" y="0" width="100%" height="432.36" filterUnits="userSpaceOnUse">
      <feOffset dx="10" input="SourceAlpha"/>
      <feGaussianBlur stdDeviation="25" result="blur"/>
      <feFlood flood-color="#f6f6f6" flood-opacity="0.161"/>
      <feComposite operator="in" in2="blur"/>
      <feComposite in="SourceGraphic"/>
    </filter>
  </defs>
  <g transform="matrix(1, 0, 0, 1, 0, 0)" filter="url(#Path_1)">
    <path id="Path_1-2" data-name="Path 1" d="M607,257.439h472.266S1197.3,249,1229,287s156.8,8.933,198,31c20.4,10.923,75-16,106,0,43,18,74,8,74,8V444.607s-14.268-2.045-16.911,0,9.431-4.212,0,0c-43.26,19.321-28.089,5.307-28.089,5.307s-15.72-8.6-19.976-5.307-17.686,3.482-22.187,0-41.2,5.307-41.2,5.307-52.425,11.51-64.976-5.307-29.253,29.219-49.407,38.22-22.545-29.679-59.979-46.4c-14.6-6.52-22.152-38-62.259-14.782s-75.154-7.285-81.921-7.285c-11.094,0-60.222,17.163-118.859-25.745s-68.146,132.4-139.461,61.3-133.122-88.269-133.122-88.269-26.161,78.638-26.161,20.238-26.137-10.43-26.137-10.43h0s-48.17,78.461-32.009,117.692-12.365,46.586-12.365,46.586-25.125,7.356-26.941,0h0c-7.071-11.081,11.023-52.9,11.023-52.9h0s10.85-5.876,28.283-56.206,0-74.783,0-74.783-9.238-14.733-28.283,0S607,422.962,607,381.883Z" transform="translate(-542 -181.64)" fill="rgba(72,25,8,0.86)"/>
  </g>
</svg> --><svg width="480" height="360" viewBox="0 0 480 360" xmlns="http://www.w3.org/2000/svg">
                                    <defs>
                                        <filter x="-500%" y="-500%" width="1000%" height="1000%" filterUnits="objectBoundingBox" id="dropshadow-1">
                                            <feOffset dy="16" in="SourceAlpha" result="shadowOffsetOuter"/>
                                            <feGaussianBlur stdDeviation="24" in="shadowOffsetOuter" result="shadowBlurOuter"/>
                                            <feColorMatrix values="0 0 0 0 0.12 0 0 0 0 0.17 0 0 0 0 0.21 0 0 0 0.2 0" in="shadowBlurOuter"/>
                                        </filter>
                                    </defs>
                                    <path fill="#F6F8FA" d="M0 220V0h200zM480 140v220H280z"/>
                                    <path fill="#FFF" d="M40 50h400v260H40z" style="mix-blend-mode:multiply;filter:url(#dropshadow-1)"/>
                                    <path fill="#FFF" d="M40 50h400v260H40z"/>
                                    <path fill="#FFF" d="M103 176h80v160h-80zM320 24h88v88h-88z" style="mix-blend-mode:multiply;filter:url(#dropshadow-1)"/>
                                    <path fill="#FFF" d="M103 176h80v160h-80zM320 24h88v88h-88z"/>
                                    <path fill="#FFF" d="M230.97 198l16.971 16.971-16.97 16.97L214 214.972z" style="mix-blend-mode:multiply;filter:url(#dropshadow-1)"/>
                                    <path fill="#02C6A4" d="M230.97 198l16.971 16.971-16.97 16.97L214 214.972z"/>
                                    <path fill="#FFF" d="M203 121H103v100z" style="mix-blend-mode:multiply;filter:url(#dropshadow-1)"/>
                                    <path fill="#84E482" d="M203 121H103v100z"/>
                                    <circle fill="#FFF" cx="288" cy="166" r="32" style="mix-blend-mode:multiply;filter:url(#dropshadow-1)"/>
                                    <circle fill="#0EB3CE" cx="288" cy="166" r="32" style="mix-blend-mode:multiply"/>
                                </svg>
