<svg xmlns="http://www.w3.org/2000/svg" xmlns:xlink="http://www.w3.org/1999/xlink"  width="100%" height="432.36" viewBox="0 0 1036 432.36">
  <defs>
    <filter id="Path_1" x="0" y="0" width="1136" height="432.36" filterUnits="userSpaceOnUse">
      <feOffset dx="10" input="SourceAlpha"/>
      <feGaussianBlur stdDeviation="25" result="blur"/>
      <feFlood flood-color="#f6f6f6" flood-opacity="0.161"/>
      <feComposite operator="in" in2="blur"/>
      <feComposite in="SourceGraphic"/>
    </filter>
  </defs>
  <g transform="matrix(1, 0, 0, 1, 0, 0)" filter="url(#Path_1)">
    <path id="Path_1-2" data-name="Path 1" d="M607,257.439h472.266S1197.3,249,1229,287s156.8,8.933,198,31c20.4,10.923,75-16,106,0,43,18,74,8,74,8V444.607s-14.268-2.045-16.911,0,9.431-4.212,0,0c-43.26,19.321-28.089,5.307-28.089,5.307s-15.72-8.6-19.976-5.307-17.686,3.482-22.187,0-41.2,5.307-41.2,5.307-52.425,11.51-64.976-5.307-29.253,29.219-49.407,38.22-22.545-29.679-59.979-46.4c-14.6-6.52-22.152-38-62.259-14.782s-75.154-7.285-81.921-7.285c-11.094,0-60.222,17.163-118.859-25.745s-68.146,132.4-139.461,61.3-133.122-88.269-133.122-88.269-26.161,78.638-26.161,20.238-26.137-10.43-26.137-10.43h0s-48.17,78.461-32.009,117.692-12.365,46.586-12.365,46.586-25.125,7.356-26.941,0h0c-7.071-11.081,11.023-52.9,11.023-52.9h0s10.85-5.876,28.283-56.206,0-74.783,0-74.783-9.238-14.733-28.283,0S607,422.962,607,381.883Z" transform="translate(-542 -181.64)" fill="rgba(72,25,8,0.86)"/>
  </g>
</svg>
